<svg width="284" height="75" viewBox="0 0 284 75" fill="none" xmlns="http://www.w3.org/2000/svg">
<circle cx="31.5" cy="62.5" r="6.5" fill="#22C55E"/>
<circle cx="31.5" cy="12.5" r="6.5" fill="#22C55E"/>
<circle cx="56.5" cy="37.5" r="6.5" fill="#22C55E"/>
<circle cx="6.5" cy="37.5" r="6.5" fill="#22C55E"/>
<circle cx="44.5" cy="50.5" r="6" fill="#A3DAFF" stroke="#A3DAFF"/>
<circle cx="18.5" cy="24.5" r="6" fill="#A3DAFF" stroke="#A3DAFF"/>
<circle cx="18.5" cy="50.5" r="6" fill="#A3DAFF" stroke="#A3DAFF"/>
<circle cx="44.5" cy="24.5" r="6" fill="#A3DAFF" stroke="#A3DAFF"/>
<rect x="44.4458" y="15.255" width="12.99" height="49.8974" rx="6.49502" transform="rotate(44.6219 44.4458 15.255)" fill="#A3DAFF"/>
<rect x="53.8237" y="50.1577" width="13.0723" height="49.8974" rx="6.53614" transform="rotate(134.622 53.8237 50.1577)" fill="#A3DAFF"/>
<path d="M87.34 18C88.3 18 89.14 18.36 89.86 19.08C90.62 19.76 91 20.62 91 21.66V56.34C91 57.38 90.62 58.26 89.86 58.98C89.1 59.66 88.22 60 87.22 60C86.1 60 85.2 59.66 84.52 58.98C83.84 58.26 83.5 57.38 83.5 56.34V21.66C83.5 20.62 83.86 19.76 84.58 19.08C85.3 18.36 86.22 18 87.34 18ZM113.92 18C115.04 18 115.94 18.36 116.62 19.08C117.3 19.76 117.64 20.62 117.64 21.66V56.34C117.64 57.38 117.28 58.26 116.56 58.98C115.88 59.66 114.96 60 113.8 60C112.84 60 111.98 59.66 111.22 58.98C110.5 58.26 110.14 57.38 110.14 56.34V21.66C110.14 20.62 110.52 19.76 111.28 19.08C112.04 18.36 112.92 18 113.92 18ZM87.16 35.46H113.92V42.36H87.16V35.46ZM149.845 27.9C150.885 27.9 151.745 28.26 152.425 28.98C153.105 29.66 153.445 30.52 153.445 31.56V46.8C153.445 51.04 152.265 54.4 149.905 56.88C147.545 59.36 144.145 60.6 139.705 60.6C135.265 60.6 131.865 59.36 129.505 56.88C127.185 54.4 126.025 51.04 126.025 46.8V31.56C126.025 30.52 126.365 29.66 127.045 28.98C127.725 28.26 128.585 27.9 129.625 27.9C130.665 27.9 131.525 28.26 132.205 28.98C132.885 29.66 133.225 30.52 133.225 31.56V46.8C133.225 49.24 133.765 51.06 134.845 52.26C135.925 53.42 137.545 54 139.705 54C141.905 54 143.545 53.42 144.625 52.26C145.705 51.06 146.245 49.24 146.245 46.8V31.56C146.245 30.52 146.585 29.66 147.265 28.98C147.945 28.26 148.805 27.9 149.845 27.9ZM187.52 15.6C188.56 15.6 189.42 15.94 190.1 16.62C190.78 17.3 191.12 18.18 191.12 19.26V56.34C191.12 57.38 190.78 58.26 190.1 58.98C189.42 59.66 188.56 60 187.52 60C186.48 60 185.62 59.66 184.94 58.98C184.26 58.26 183.92 57.38 183.92 56.34V53.4L185.24 53.94C185.24 54.46 184.96 55.1 184.4 55.86C183.84 56.58 183.08 57.3 182.12 58.02C181.16 58.74 180.02 59.36 178.7 59.88C177.42 60.36 176.02 60.6 174.5 60.6C171.74 60.6 169.24 59.9 167 58.5C164.76 57.06 162.98 55.1 161.66 52.62C160.38 50.1 159.74 47.22 159.74 43.98C159.74 40.7 160.38 37.82 161.66 35.34C162.98 32.82 164.74 30.86 166.94 29.46C169.14 28.02 171.58 27.3 174.26 27.3C175.98 27.3 177.56 27.56 179 28.08C180.44 28.6 181.68 29.26 182.72 30.06C183.8 30.86 184.62 31.68 185.18 32.52C185.78 33.32 186.08 34 186.08 34.56L183.92 35.34V19.26C183.92 18.22 184.26 17.36 184.94 16.68C185.62 15.96 186.48 15.6 187.52 15.6ZM175.4 54C177.16 54 178.7 53.56 180.02 52.68C181.34 51.8 182.36 50.6 183.08 49.08C183.84 47.56 184.22 45.86 184.22 43.98C184.22 42.06 183.84 40.34 183.08 38.82C182.36 37.3 181.34 36.1 180.02 35.22C178.7 34.34 177.16 33.9 175.4 33.9C173.68 33.9 172.16 34.34 170.84 35.22C169.52 36.1 168.48 37.3 167.72 38.82C167 40.34 166.64 42.06 166.64 43.98C166.64 45.86 167 47.56 167.72 49.08C168.48 50.6 169.52 51.8 170.84 52.68C172.16 53.56 173.68 54 175.4 54ZM225.196 15.6C226.236 15.6 227.096 15.94 227.776 16.62C228.456 17.3 228.796 18.18 228.796 19.26V56.34C228.796 57.38 228.456 58.26 227.776 58.98C227.096 59.66 226.236 60 225.196 60C224.156 60 223.296 59.66 222.616 58.98C221.936 58.26 221.596 57.38 221.596 56.34V53.4L222.916 53.94C222.916 54.46 222.636 55.1 222.076 55.86C221.516 56.58 220.756 57.3 219.796 58.02C218.836 58.74 217.696 59.36 216.376 59.88C215.096 60.36 213.696 60.6 212.176 60.6C209.416 60.6 206.916 59.9 204.676 58.5C202.436 57.06 200.656 55.1 199.336 52.62C198.056 50.1 197.416 47.22 197.416 43.98C197.416 40.7 198.056 37.82 199.336 35.34C200.656 32.82 202.416 30.86 204.616 29.46C206.816 28.02 209.256 27.3 211.936 27.3C213.656 27.3 215.236 27.56 216.676 28.08C218.116 28.6 219.356 29.26 220.396 30.06C221.476 30.86 222.296 31.68 222.856 32.52C223.456 33.32 223.756 34 223.756 34.56L221.596 35.34V19.26C221.596 18.22 221.936 17.36 222.616 16.68C223.296 15.96 224.156 15.6 225.196 15.6ZM213.076 54C214.836 54 216.376 53.56 217.696 52.68C219.016 51.8 220.036 50.6 220.756 49.08C221.516 47.56 221.896 45.86 221.896 43.98C221.896 42.06 221.516 40.34 220.756 38.82C220.036 37.3 219.016 36.1 217.696 35.22C216.376 34.34 214.836 33.9 213.076 33.9C211.356 33.9 209.836 34.34 208.516 35.22C207.196 36.1 206.156 37.3 205.396 38.82C204.676 40.34 204.316 42.06 204.316 43.98C204.316 45.86 204.676 47.56 205.396 49.08C206.156 50.6 207.196 51.8 208.516 52.68C209.836 53.56 211.356 54 213.076 54ZM244.391 56.34C244.391 57.38 244.031 58.26 243.311 58.98C242.631 59.66 241.771 60 240.731 60C239.731 60 238.891 59.66 238.211 58.98C237.531 58.26 237.191 57.38 237.191 56.34V19.26C237.191 18.22 237.531 17.36 238.211 16.68C238.931 15.96 239.811 15.6 240.851 15.6C241.891 15.6 242.731 15.96 243.371 16.68C244.051 17.36 244.391 18.22 244.391 19.26V56.34ZM267.297 60.6C263.897 60.6 260.937 59.9 258.417 58.5C255.937 57.06 254.017 55.12 252.657 52.68C251.337 50.24 250.677 47.48 250.677 44.4C250.677 40.8 251.397 37.74 252.837 35.22C254.317 32.66 256.237 30.7 258.597 29.34C260.957 27.98 263.457 27.3 266.097 27.3C268.137 27.3 270.057 27.72 271.857 28.56C273.697 29.4 275.317 30.56 276.717 32.04C278.117 33.48 279.217 35.16 280.017 37.08C280.857 39 281.277 41.04 281.277 43.2C281.237 44.16 280.857 44.94 280.137 45.54C279.417 46.14 278.577 46.44 277.617 46.44H254.697L252.897 40.44H274.917L273.597 41.64V40.02C273.517 38.86 273.097 37.82 272.337 36.9C271.617 35.98 270.697 35.26 269.577 34.74C268.497 34.18 267.337 33.9 266.097 33.9C264.897 33.9 263.777 34.06 262.737 34.38C261.697 34.7 260.797 35.24 260.037 36C259.277 36.76 258.677 37.78 258.237 39.06C257.797 40.34 257.577 41.96 257.577 43.92C257.577 46.08 258.017 47.92 258.897 49.44C259.817 50.92 260.977 52.06 262.377 52.86C263.817 53.62 265.337 54 266.937 54C268.417 54 269.597 53.88 270.477 53.64C271.357 53.4 272.057 53.12 272.577 52.8C273.137 52.44 273.637 52.14 274.077 51.9C274.797 51.54 275.477 51.36 276.117 51.36C276.997 51.36 277.717 51.66 278.277 52.26C278.877 52.86 279.177 53.56 279.177 54.36C279.177 55.44 278.617 56.42 277.497 57.3C276.457 58.18 274.997 58.96 273.117 59.64C271.237 60.28 269.297 60.6 267.297 60.6Z" fill="white"/>
</svg>
